<svg xmlns="http://www.w3.org/2000/svg" viewBox="0 0 941.28 995.93">
  <defs>
    <style>
      .cls-1, .cls-3 {
        fill: #fff;
      }

      .cls-2 {
        fill: none;
      }

      .cls-2, .cls-3 {
        stroke: #000;
        stroke-miterlimit: 10;
        stroke-width: 2px;
      }
    </style>
  </defs>
  <title>Letter Spacing</title>
  <g id="Layer_2" data-name="Layer 2">
    <g id="Icon-LetterSpacing">
      <g id="Icon-LetterSpacing-2" data-name="Icon-LetterSpacing">
        <g>
          <path class="cls-1" d="M259.88,701.47l41.26,41.26-74.81,74.81H441.25c-.16,20.13-.32,39.61-.48,59.62-71.7,1.23-142.74.64-214.52.85l75.06,75.06-41.43,41.43L113.36,848Z"/>
          <path class="cls-2" d="M259.88,701.47l41.26,41.26-74.81,74.81H441.25c-.16,20.13-.32,39.61-.48,59.62-71.7,1.23-142.74.64-214.52.85l75.06,75.06-41.43,41.43L113.36,848Z"/>
        </g>
        <g>
          <path class="cls-1" d="M493.53,878.5v-60h214l.33-.91L633.46,743.2l41.28-41.28L820.9,848.08,674.72,994.26,633.6,953.13l74.64-74.64Z"/>
          <path class="cls-2" d="M493.53,878.5v-60h214l.33-.91L633.46,743.2l41.28-41.28L820.9,848.08,674.72,994.26,633.6,953.13l74.64-74.64Z"/>
        </g>
        <path class="cls-3" d="M406.08,591.65h80.08L286.46,1H201.09L1.39,591.65h77L135,412H350.06ZM154,351.71,182.27,262c21.19-66,40.11-130.53,58.37-199h3.6c18.93,68.12,37.85,133,59,199l28,89.71Z"/>
        <path class="cls-3" d="M863,1,768.5,320c-20.39,69.46-34.92,125.8-56.78,195h-3.59c-21.86-69.22-36.06-125.56-56.78-195L556.21,1H476.13L664.77,591.65h87.64L939.91,1Z"/>
      </g>
    </g>
  </g>
</svg>
