<svg xmlns="http://www.w3.org/2000/svg" viewBox="0 0 862 862">
  <defs>
    <style>
      .cls-1 {
        fill: #fff;
        stroke: #000;
        stroke-miterlimit: 10;
        stroke-width: 2px;
      }
    </style>
  </defs>
  <title>Add Text</title>
  <g id="Layer_2" data-name="Layer 2">
    <g id="Icon-Plus">
      <path id="Icon-Plus-2" data-name="Icon-Plus" class="cls-1" d="M794.5,364.5h-297V67.5A66.5,66.5,0,0,0,431,1h0a66.5,66.5,0,0,0-66.5,66.5v297H67.5A66.5,66.5,0,0,0,1,431H1a66.5,66.5,0,0,0,66.5,66.5h297v297A66.5,66.5,0,0,0,431,861h0a66.5,66.5,0,0,0,66.5-66.5v-297h297A66.5,66.5,0,0,0,861,431h0A66.5,66.5,0,0,0,794.5,364.5Z"/>
    </g>
  </g>
</svg>
