<svg xmlns="http://www.w3.org/2000/svg" viewBox="0 0 902 902">
  <defs>
    <style>
      .cls-1, .cls-3 {
        fill: #fff;
      }

      .cls-2 {
        fill: none;
      }

      .cls-2, .cls-3 {
        stroke: #000;
        stroke-miterlimit: 10;
        stroke-width: 2px;
      }
    </style>
  </defs>
  <title>Delete Text</title>
  <g id="Layer_2" data-name="Layer 2">
    <g id="Icon-Delete">
      <g id="Icon-Delete-2" data-name="Icon-Delete">
        <g>
          <path class="cls-1" d="M451,1C202.47,1,1,202.47,1,451S202.47,901,451,901,901,699.53,901,451,699.53,1,451,1Zm0,803C256,804,98,646,98,451S256,98,451,98,804,256,804,451,646,804,451,804Z"/>
          <path class="cls-2" d="M451,1C202.47,1,1,202.47,1,451S202.47,901,451,901,901,699.53,901,451,699.53,1,451,1Zm0,803C256,804,98,646,98,451S256,98,451,98,804,256,804,451,646,804,451,804Z"/>
        </g>
        <path id="X" class="cls-3" d="M653,590.52,513.48,451,653,311.48A44.19,44.19,0,0,0,653,249h0a44.19,44.19,0,0,0-62.48,0L451,388.52,311.48,249A44.19,44.19,0,0,0,249,249h0a44.19,44.19,0,0,0,0,62.48L388.52,451,249,590.52A44.19,44.19,0,0,0,249,653h0a44.19,44.19,0,0,0,62.48,0L451,513.48,590.52,653A44.19,44.19,0,0,0,653,653h0A44.19,44.19,0,0,0,653,590.52Z"/>
      </g>
    </g>
  </g>
</svg>
