<svg xmlns="http://www.w3.org/2000/svg" viewBox="0 0 656.5 724.72">
  <defs>
    <style>
      .cls-1 {
        fill: #fff;
        stroke: #000;
        stroke-miterlimit: 10;
        stroke-width: 2px;
      }
    </style>
  </defs>
  <title>Bold</title>
  <g id="Layer_2" data-name="Layer 2">
    <g id="Icon-Bold">
      <path id="Icon-Bold-2" data-name="Icon-Bold" class="cls-1" d="M426.19,337c144.1-26.28,186.66-90.94,186.66-165.93C612.85,74.21,543.11,1,356.69,1H1V60.08l82.94,8.57c1.72,92.65,1.72,185.74,1.72,278.11v32c0,93.76,0,186.3-1.7,277.31L1,664.64v59.08H314.31C588.08,723.72,655.5,613,655.5,520.83,655.5,422.36,589.89,355.9,426.19,337ZM308.12,64.3c86.32,0,126.37,39.17,126.37,120.53C434.49,271.74,391.27,317,298,317H267.2c0-85.21.19-169.73,1.78-252.72Zm-2.75,596.12H269c-1.78-93.33-1.8-187.44-1.8-284.86h37.3c109.56,0,161.58,43.76,161.58,143.68C466.08,612.07,407.1,660.42,305.37,660.42Z"/>
    </g>
  </g>
</svg>
