<svg xmlns="http://www.w3.org/2000/svg" viewBox="0 0 930 930">
  <defs>
    <style>
      .cls-1 {
        fill: #2c2c2d;
      }

      .cls-2 {
        fill: #fff;
      }

      .cls-3 {
        fill: #252626;
      }
    </style>
  </defs>
  <title>Enhanced Image</title>
  <g id="Layer_2" data-name="Layer 2">
    <g id="Icon-Toggle">
      <g>
        <rect class="cls-1" width="930" height="930" rx="85.35"/>
        <rect class="cls-2" x="140.21" y="222.58" width="650.76" height="35.3" rx="15"/>
        <rect class="cls-2" x="140.21" y="444.99" width="650.76" height="35.3" rx="15"/>
        <rect class="cls-2" x="140.21" y="672.11" width="650.76" height="35.3" rx="15"/>
        <g>
          <circle class="cls-3" cx="647.99" cy="240.82" r="85.61"/>
          <path class="cls-2" d="M648,170.21a70.62,70.62,0,1,1-70.62,70.61A70.69,70.69,0,0,1,648,170.21m0-30A100.62,100.62,0,1,0,748.6,240.82,100.62,100.62,0,0,0,648,140.21Z"/>
        </g>
        <g>
          <circle class="cls-3" cx="313.78" cy="460.88" r="85.61"/>
          <path class="cls-2" d="M313.78,390.27a70.62,70.62,0,1,1-70.61,70.61,70.69,70.69,0,0,1,70.61-70.61m0-30A100.62,100.62,0,1,0,414.4,460.88,100.61,100.61,0,0,0,313.78,360.27Z"/>
        </g>
        <g>
          <circle class="cls-3" cx="546.79" cy="690.35" r="85.61"/>
          <path class="cls-2" d="M546.79,619.74a70.62,70.62,0,1,1-70.62,70.61,70.7,70.7,0,0,1,70.62-70.61m0-30A100.62,100.62,0,1,0,647.4,690.35,100.62,100.62,0,0,0,546.79,589.74Z"/>
        </g>
      </g>
    </g>
  </g>
</svg>
