<svg xmlns="http://www.w3.org/2000/svg" viewBox="0 0 928 874">
  <defs>
    <style>
      .cls-1 {
        fill: #fff;
        stroke: #000;
        stroke-miterlimit: 10;
        stroke-width: 2px;
      }
    </style>
  </defs>
  <title>Share Image</title>
  <g id="Layer_2" data-name="Layer 2">
    <g id="Icon-Share">
      <path id="Share_Image" data-name="Share Image" class="cls-1" d="M767,553a159.59,159.59,0,0,0-119.76,53.92L320.82,471.53c.11-2.49.18-5,.18-7.53a160.45,160.45,0,0,0-3.83-34.89L541.73,285.67a159.71,159.71,0,1,0-56.14-90.87L260.42,338.64a160,160,0,1,0,20.05,231.78l326.69,135.5c-.1,2.35-.16,4.71-.16,7.08A160,160,0,1,0,767,553ZM161,563a99,99,0,1,1,99-99A99,99,0,0,1,161,563Z"/>
    </g>
  </g>
</svg>
