<svg xmlns="http://www.w3.org/2000/svg" viewBox="0 0 963.5 893">
  <defs>
    <style>
      .cls-1 {
        fill: #fff;
        stroke: #000;
        stroke-miterlimit: 10;
        stroke-width: 2px;
      }
    </style>
  </defs>
  <title>Colorize</title>
  <g id="Layer_2" data-name="Layer 2">
    <g id="Icon-Colorize">
      <g id="Colorize">
        <path class="cls-1" d="M383,664,589.77,163.79A58.5,58.5,0,0,0,558.33,87.5L383,14Z"/>
        <path class="cls-1" d="M408.5,737.5,783.89,360.3a58.49,58.49,0,0,0,1.46-81L648.5,131.5Z"/>
        <path class="cls-1" d="M395.5,817.5,898.23,612.25a58.48,58.48,0,0,0,32.39-75.37L856.5,346.5Z"/>
        <path class="cls-1" d="M359.5,891.5H904A58.49,58.49,0,0,0,962.5,833V641.5Z"/>
        <path class="cls-1" d="M267,1H78.33A77.33,77.33,0,0,0,1,78.33V814.67A77.33,77.33,0,0,0,78.33,892H267a66,66,0,0,0,66-66V67A66,66,0,0,0,267,1ZM205.5,810.5a51,51,0,1,1,51-51A51,51,0,0,1,205.5,810.5Z"/>
      </g>
    </g>
  </g>
</svg>
