<svg xmlns="http://www.w3.org/2000/svg" viewBox="0 0 999.96 999.96">
  <defs>
    <style>
      .cls-1 {
        fill: #fff;
        stroke: #000;
        stroke-miterlimit: 10;
        stroke-width: 2px;
      }
    </style>
  </defs>
  <title>Generate</title>
  <g id="Layer_2" data-name="Layer 2">
    <g id="Icon-Generate">
      <g id="Generate">
        <path class="cls-1" d="M249.31,834.8c21.22-21.22,24.26-56.31,7.92-82.88L503.87,505.28l1.41-1.41L751.92,257.23c26.57,16.34,61.66,13.3,82.88-7.92,28.12-28.12,29.38-72.44,2.83-99s-70.88-25.29-99,2.82c-23.34,23.34-24.17,55.52-8.47,82L483.36,482,482,483.36,235.14,730.17c-26.48-15.7-58.66-14.87-82,8.47-28.11,28.11-29.38,72.43-2.82,99S221.19,862.92,249.31,834.8Z"/>
        <path class="cls-1" d="M117.08,671.45A68,68,0,0,0,126,586.21l44.86-44.86,129.4,7.78L424,425.38l1.41-1.41L549.13,300.22l-7.78-129.4L586.21,126A68,68,0,1,0,567,107l-53.21,53.22,5,129.4L404.18,402.76h0l-.7.72-.72.7h0L289.62,518.72l-129.4-5L107,567a68,68,0,1,0,10.08,104.47Z"/>
        <path class="cls-1" d="M128.4,462.15a67.64,67.64,0,0,0,19.07-37.48H250.73L337,338.41l1.42-1.42,86.26-86.26V147.47a68,68,0,1,0-28.87-1.66l.59,90.77-67.88,67.89L260.8,236.76c14.71-25.58,10.82-59.19-11.49-81.49-26.55-26.56-69.13-27-95.1-1.06s-25.5,68.55,1.06,95.1c22.3,22.31,55.91,26.2,81.49,11.49l67.71,67.71-67.89,67.88-90.77-.59a68,68,0,1,0-17.41,66.35Z"/>
        <path class="cls-1" d="M872.27,537.1a67.68,67.68,0,0,0-19.07,37.48H752.77L664.38,663,663,664.38l-88.39,88.39V853.2a68,68,0,1,0,31.81,2.55l-2.82-89.54,69.3-69.3,66.29,66.29c-14.71,25.58-10.82,59.19,11.49,81.5,26.56,26.55,69.14,27,95.11,1.06s25.49-68.55-1.06-95.11c-22.31-22.31-55.92-26.2-81.5-11.49l-66.29-66.29,69.3-69.3,89.54,2.82a68,68,0,1,0,16.52-69.29Z"/>
        <path class="cls-1" d="M882.88,327.09a68,68,0,0,0-9.42,84.38L827.73,457.2l-126.58-7.78L576,574.58,574.58,576,449.42,701.15l7.78,126.58-45.73,45.73a68,68,0,1,0,21.21,21.21l53.51-53.51-6.36-128,116-116,1.42-1.42,116-116,128,6.36,53.51-53.51a68,68,0,1,0-11.79-105.59Z"/>
      </g>
    </g>
  </g>
</svg>
