<svg xmlns="http://www.w3.org/2000/svg" viewBox="0 0 902 902">
  <defs>
    <style>
      .cls-1 {
        fill: #fff;
      }

      .cls-2 {
        fill: none;
        stroke: #000;
        stroke-miterlimit: 10;
        stroke-width: 2px;
      }
    </style>
  </defs>
  <title>About Enhanced Image</title>
  <g id="Layer_2" data-name="Layer 2">
    <g id="Icon-About">
      <g id="Icon-About-2" data-name="Icon-About">
        <g>
          <path class="cls-1" d="M451,1C202.47,1,1,202.47,1,451S202.47,901,451,901,901,699.53,901,451,699.53,1,451,1Zm0,803C256,804,98,646,98,451S256,98,451,98,804,256,804,451,646,804,451,804Z"/>
          <path class="cls-2" d="M451,1C202.47,1,1,202.47,1,451S202.47,901,451,901,901,699.53,901,451,699.53,1,451,1Zm0,803C256,804,98,646,98,451S256,98,451,98,804,256,804,451,646,804,451,804Z"/>
        </g>
        <g>
          <rect class="cls-1" x="381" y="367" width="140" height="370" rx="70"/>
          <rect class="cls-2" x="381" y="367" width="140" height="370" rx="70"/>
        </g>
        <g>
          <circle class="cls-1" cx="451" cy="240" r="70"/>
          <circle class="cls-2" cx="451" cy="240" r="70"/>
        </g>
      </g>
    </g>
  </g>
</svg>
