<svg xmlns="http://www.w3.org/2000/svg" viewBox="0 0 902 902">
  <defs>
    <style>
      .cls-1 {
        fill: #fff;
        stroke: #000;
        stroke-miterlimit: 10;
        stroke-width: 2px;
      }
    </style>
  </defs>
  <title>Delete</title>
  <g id="Layer_2" data-name="Layer 2">
    <g id="Icon-Delete">
      <path id="Icon-Delete-2" data-name="Icon-Delete" class="cls-1" d="M451,1C202.47,1,1,202.47,1,451S202.47,901,451,901,901,699.53,901,451,699.53,1,451,1ZM732.74,663.7,544.55,475.5l208-208A353.19,353.19,0,0,1,732.74,663.7ZM663.22,168.89c-.92.83-1.83,1.67-2.71,2.55l-210,210-210-210q-1.11-1.09-2.25-2.13a353.08,353.08,0,0,1,425-.42ZM149,268.08,356.45,475.5,168.83,663.13a353.2,353.2,0,0,1-19.8-395ZM267.46,752.59l183-183L633.92,753a353.35,353.35,0,0,1-366.46-.38Z"/>
    </g>
  </g>
</svg>
