<svg xmlns="http://www.w3.org/2000/svg" viewBox="0 0 926.53 757.98">
  <defs>
    <style>
      .cls-1, .cls-3 {
        fill: #fff;
      }

      .cls-2 {
        fill: none;
      }

      .cls-2, .cls-3 {
        stroke: #000;
        stroke-miterlimit: 10;
        stroke-width: 2px;
      }
    </style>
  </defs>
  <title>Font Size</title>
  <g id="Layer_2" data-name="Layer 2">
    <g id="Icon-FontSize">
      <g id="Icon-FontSize-2" data-name="Icon-FontSize">
        <g>
          <path class="cls-1" d="M632.08,609.9l41.26-41.26,74.81,74.81V428.53l59.62.48c1.23,71.71.64,142.74.85,214.52l75.07-75.06,41.43,41.43L778.6,756.42Z"/>
          <path class="cls-2" d="M632.08,609.9l41.26-41.26,74.81,74.81V428.53l59.62.48c1.23,71.71.64,142.74.85,214.52l75.07-75.06,41.43,41.43L778.6,756.42Z"/>
        </g>
        <g>
          <path class="cls-1" d="M809,328.79h-60v-214l-.92-.32L673.7,188.86l-41.28-41.28L778.58,1.41,924.76,147.59l-41.12,41.13L809,114.08C809,186,809,257.27,809,328.79Z"/>
          <path class="cls-2" d="M809,328.79h-60v-214l-.92-.32L673.7,188.86l-41.28-41.28L778.58,1.41,924.76,147.59l-41.12,41.13L809,114.08C809,186,809,257.27,809,328.79Z"/>
        </g>
        <path class="cls-3" d="M518.5,757H620.82L365.65,2.26H256.56L1.39,757H99.71l72.37-229.53H446.91ZM196.37,450.39l36.14-114.63C259.59,251.45,283.77,169,307.1,81.51h4.6c24.18,87,48.36,169.94,75.44,254.25l35.74,114.63Z"/>
      </g>
    </g>
  </g>
</svg>
