<svg xmlns="http://www.w3.org/2000/svg" viewBox="0 0 857.49 734.93">
  <defs>
    <style>
      .cls-1 {
        fill: #fff;
        stroke: #000;
        stroke-miterlimit: 10;
        stroke-width: 2px;
      }
    </style>
  </defs>
  <title>Font Size</title>
  <g id="Layer_2" data-name="Layer 2">
    <g id="Icon-FontSize">
      <g id="Icon-FontSize-2" data-name="Icon-FontSize">
        <path class="cls-1" d="M606,58H762.69l23.78,141.25h70L849.23,1H235.73l-7.44,198.29h70.2L322.27,58H478.74c1.9,94.57,1.91,189.65,1.91,284v50.93c0,94.92,0,189.1-1.84,281.31l-108,11.39v48.3H714.16v-48.3L606,674.29c-1.86-93.72-1.86-187.95-1.86-281.59V342C604.09,246.17,604.1,151.1,606,58Z"/>
        <path class="cls-1" d="M207.07,365.22h85.46l13,77h38.16l-3.93-108.16H5.1L1,442.27H39.33l13-77h85.34c1,51.58,1.05,103.44,1.05,154.89v27.78c0,51.78,0,103.14-1,153.44l-58.89,6.21v26.35H266.06V707.54l-59-6.18c-1-51.12-1-102.52-1-153.6V520.11C206,467.83,206,416,207.07,365.22Z"/>
      </g>
    </g>
  </g>
</svg>
