<svg xmlns="http://www.w3.org/2000/svg" viewBox="0 0 787.71 931.66">
  <defs>
    <style>
      .cls-1 {
        fill: #fff;
        stroke: #fff;
        stroke-miterlimit: 10;
        stroke-width: 30px;
      }
    </style>
  </defs>
  <title>Grab</title>
  <g id="Layer_2" data-name="Layer 2">
    <g id="Icon-Grab">
      <g id="Icon-Grab-2" data-name="Icon-Grab">
        <path class="cls-1" d="M159.55,339.58V219.9c0-19.9-.19-39.81,0-59.72.52-43.91,39.8-86.6,83.55-90.75,18.28-1.74,34.83,3.81,50.19,13.41,3.75,2.34,7.42,4.82,11.26,7.33,17.19-47.41,51-75.43,90.12-75.17,37.76.26,71.76,29,88.28,75.3,32.65-24.79,66.85-29.45,101.9-6,33.23,22.24,47,54.19,42.65,95.58,6.7-4.09,11.3-7.09,16.08-9.79,26.53-15,53.34-14.85,79.12.9,31.94,19.5,49.91,47.27,49.77,86.2-.43,127-1,253.91.19,380.85.68,70.9-24.76,130.38-71.53,181.71-43.93,48.22-97.16,81.12-162,93a239.58,239.58,0,0,1-40.31,3.44c-41.32.43-82.66-.8-123.95.37-66,1.88-124.86-18.64-178.75-55C126.59,814.73,71.55,754.72,34.28,679.18A181.2,181.2,0,0,1,15,594.48c.91-53.32.21-106.67.26-160,.05-51.76,42.9-94.8,94.4-94.9C125.79,339.55,141.89,339.58,159.55,339.58Zm0,35.77c-18,0-34.14-.09-50.28,0-36.4.24-58.08,21.84-58.19,58.31-.15,55.23.3,110.46-.23,165.68a145.18,145.18,0,0,0,13,62.25C93.88,728,140.77,780.34,199.14,822.84c52.75,38.4,110.87,60.38,177.35,58,37.89-1.36,75.89-.89,113.82-.09,66.77,1.41,123.33-22.73,171.21-67.87,45.13-42.54,74.33-93.9,74.77-157.29.93-134.49.36-269,.28-403.48,0-33.57-23-57.25-55-57.08-30.55.16-53.46,24.8-53.48,57.63q0,84.53,0,169.06c0,3.38.35,6.84-.24,10.12-1.66,9.22-7.34,14.69-16.72,15.53-8.73.77-16.88-5.88-18.45-14.87-.58-3.29-.31-6.74-.31-10.12q0-131.3-.1-262.6c0-25.69-14.08-45.48-36.56-52.34-37.1-11.32-71.73,14.1-71.83,53.09-.17,69.12-.05,138.25-.06,207.38a64.38,64.38,0,0,1-.29,10.12c-1.45,9.06-9.43,15.86-18.14,15.23-9.38-.67-15.24-6-17-15.21-.68-3.64-.31-7.49-.31-11.25q0-129.6,0-259.22c0-18.44-6.08-34-20.81-45.29C409.64,48.7,390,46.82,370,56.14c-20.31,9.48-30.23,26.62-30.34,48.79-.29,54.84-.08,109.7-.08,164.55,0,34.18.07,68.37-.07,102.56-.05,13.21-7.23,21.38-18.07,21.27S304,385,303.82,371.61c0-1.5,0-3,0-4.5q0-103.14,0-206.26c0-18.44-6.54-33.89-21.47-44.94-17.9-13.26-37.53-15-57.35-5.14-20,10-29.64,27.14-29.66,49.3q-.18,149.34,0,298.67c0,31.19.07,62.37,0,93.55,0,13.08-7.23,21.47-18,21.4s-17.54-8.29-17.79-21.6c0-1.5,0-3,0-4.51q0-75.51,0-151Z"/>
      </g>
    </g>
  </g>
</svg>
