<svg xmlns="http://www.w3.org/2000/svg" viewBox="0 0 827.71 971.66">
  <defs>
    <style>
      .cls-1 {
        fill: #fff;
      }
    </style>
  </defs>
  <title>Grab Text</title>
  <g id="Layer_2" data-name="Layer 2">
    <g id="Icon-Grab">
      <path id="Icon-Grab-2" data-name="Icon-Grab" class="cls-1" d="M827.4,309.84l.11-32.51h0c.17-49.33-22.84-89.51-66.53-116.19-26.27-16-54.83-20.76-82.83-14.12-8.26-29.1-26.37-53.43-53.79-71.79-33.91-22.7-70.59-27.11-106.22-13.41C493.5,23.2,456.26.29,414.94,0h-.79C386.86,0,360.9,9.61,339,27.81a146.67,146.67,0,0,0-29.55,34,107.38,107.38,0,0,0-49.66-7.23c-61.72,5.86-114.5,63.19-115.24,125.19-.16,13.95-.12,28-.08,41.61q0,9.26,0,18.53v84.66H129.63A130.59,130.59,0,0,0,.29,454.45c0,17,0,34.27.1,51C.52,541,.65,577.85,0,613.88A217.58,217.58,0,0,0,22.89,714.66C61.59,793.1,120,859,196.54,910.6c30.44,20.52,62,36,93.8,46.14a317.46,317.46,0,0,0,96.33,14.92c3.06,0,6.13,0,9.19-.13,23.81-.68,48.36-.53,72.09-.39,16.74.1,34.05.2,51.22,0a272.85,272.85,0,0,0,46.22-4C634.67,954.53,695.79,919.6,747,863.34c26.55-29.13,46.79-60.77,60.16-94,14-34.76,20.87-72.31,20.5-111.58C826.58,541.85,827,423.91,827.4,309.84ZM511.05,865.74c-36.94-.78-76.54-1.31-115.83.1-54.49,2-105.37-14.81-155.48-51.3-57.51-41.86-98.08-90.07-124-147.38a110.11,110.11,0,0,1-9.86-47.48c.33-34.3.28-69.09.23-102.73,0-20.72-.06-42.14,0-63.18,0-17.17,6.18-23.29,23.42-23.41,5,0,10,0,15-.05l0,137.27v1.16c0,1.35,0,2.69,0,4,.61,32.22,22.72,55.74,52.56,55.93h.37A51.42,51.42,0,0,0,234,613.86c10.49-10.39,16.3-25.12,16.34-41.48.06-21.69,0-43.71,0-65q0-14.31,0-28.63,0-38.43,0-76.87c0-72.68,0-147.84.05-221.75,0-10.81,3.77-14.79,10.25-18,8-4,13.68-3.46,20.94,1.92,3.53,2.62,7.3,6.29,7.29,16.81q0,75.36,0,150.74v56.73c0,1.29,0,2.57,0,3.85.22,14.5,4.61,27.41,12.69,37.35a50.71,50.71,0,0,0,39.57,18.8h.58a51.53,51.53,0,0,0,36.5-14.71c10.48-10.33,16.29-25,16.35-41.42.1-25.4.09-51.18.08-76.11q0-13.29,0-26.59,0-24.17,0-48.33c0-38.05-.08-77.4.12-116,0-10.5,3.76-14.28,10.14-17.26,8.33-3.89,14.08-3.29,21.22,2.19,3.45,2.65,7.13,6.4,7.11,17.47-.09,67.69-.07,136.49-.05,203v56.25c0,.68,0,1.37,0,2a71.32,71.32,0,0,0,1,15.67c4.65,24.7,23.83,41.84,48.84,43.64,26.63,1.91,50.91-17.66,55.23-44.62a75.29,75.29,0,0,0,.75-13.8c0-.61,0-1.23,0-1.84q0-33.06,0-66.13c0-46.28,0-94.13.08-141.17,0-7.46,2.79-13.61,7.8-17.31s11.7-4.55,18.81-2.38c7.81,2.38,11.77,8.74,11.78,18.9.08,59.52.08,120,.09,178.57q0,42,0,84,0,.9,0,1.8a72.6,72.6,0,0,0,.86,14.33c4.7,26.88,29.31,46.07,56,43.7,25.13-2.23,43.55-19.16,48.06-44.17a68.17,68.17,0,0,0,.84-14.54c0-.6,0-1.19,0-1.79q0-33.81,0-67.63,0-50.71,0-101.42c0-11.23,5.78-22.58,18.67-22.65H702c5.77,0,10.37,1.67,13.69,5,3.81,3.79,5.92,9.87,5.92,17.13q0,50.06.12,100.11c.15,99.37.3,202.13-.4,303.11h0c-.34,48.72-21.2,91.92-63.78,132.07C614.62,847.83,566.71,866.93,511.05,865.74Z"/>
    </g>
  </g>
</svg>
