<svg xmlns="http://www.w3.org/2000/svg" viewBox="0 0 935.06 798">
  <defs>
    <style>
      .cls-1 {
        fill: #fff;
      }

      .cls-2 {
        fill: none;
        stroke: #000;
        stroke-miterlimit: 10;
        stroke-width: 2px;
      }
    </style>
  </defs>
  <title>Reset to Defaults</title>
  <g id="Layer_2" data-name="Layer 2">
    <g id="Icon-Reset">
      <g>
        <path class="cls-1" d="M734,599,933,347H793.63C768.15,151.76,601.18,1,399,1,179.19,1,1,179.19,1,399S179.19,797,399,797a396.44,396.44,0,0,0,256.11-93.34l-75.3-89.58A279.83,279.83,0,0,1,399,680c-155.19,0-281-125.81-281-281S243.81,118,399,118c137.42,0,251.79,98.65,276.18,229H535Z"/>
        <path class="cls-2" d="M734,599,933,347H793.63C768.15,151.76,601.18,1,399,1,179.19,1,1,179.19,1,399S179.19,797,399,797a396.44,396.44,0,0,0,256.11-93.34l-75.3-89.58A279.83,279.83,0,0,1,399,680c-155.19,0-281-125.81-281-281S243.81,118,399,118c137.42,0,251.79,98.65,276.18,229H535Z"/>
      </g>
    </g>
  </g>
</svg>
