<svg xmlns="http://www.w3.org/2000/svg" viewBox="0 0 899 862.41">
  <defs>
    <style>
      .cls-1 {
        fill: #fff;
      }

      .cls-2 {
        fill: none;
        stroke: #000;
        stroke-miterlimit: 10;
        stroke-width: 2px;
      }
    </style>
  </defs>
  <title>Save Image</title>
  <g id="Layer_2" data-name="Layer 2">
    <g id="Icon-Save">
      <g>
        <g>
          <path class="cls-1" d="M455.71,622.23,217.12,317h11.23c48.9-.12,97.8-.51,146.7-.14,9.33.07,11-3.12,11-11.59q-.42-144.95-.22-289.9V1H519.37v9.57c0,98.39.17,196.78-.21,295.18,0,9.33,2.85,11.05,11.37,11,49.78-.38,99.57-.21,149.35-.23h10.37Z"/>
          <path class="cls-2" d="M455.71,622.23,217.12,317h11.23c48.9-.12,97.8-.51,146.7-.14,9.33.07,11-3.12,11-11.59q-.42-144.95-.22-289.9V1H519.37v9.57c0,98.39.17,196.78-.21,295.18,0,9.33,2.85,11.05,11.37,11,49.78-.38,99.57-.21,149.35-.23h10.37Z"/>
        </g>
        <g>
          <polygon class="cls-1" points="1 549.09 1 861.41 897.58 861.41 898 549.09 783 549.09 783 747.09 111 747.09 111 549.09 1 549.09"/>
          <polygon class="cls-2" points="1 549.09 1 861.41 897.58 861.41 898 549.09 783 549.09 783 747.09 111 747.09 111 549.09 1 549.09"/>
        </g>
      </g>
    </g>
  </g>
</svg>
