<svg xmlns="http://www.w3.org/2000/svg" viewBox="0 0 892 892">
  <defs>
    <style>
      .cls-1 {
        fill: #2c2c2d;
      }

      .cls-2 {
        fill: #fff;
      }

      .cls-3 {
        fill: #252626;
      }
    </style>
  </defs>
  <title>Asset 8</title>
  <g id="Layer_2" data-name="Layer 2">
    <g id="Layer_2-2" data-name="Layer 2">
      <rect class="cls-1" width="892" height="892" rx="85.35"/>
      <rect class="cls-2" x="121.21" y="203.58" width="650.76" height="35.3" rx="15"/>
      <rect class="cls-2" x="121.21" y="425.99" width="650.76" height="35.3" rx="15"/>
      <rect class="cls-2" x="121.21" y="653.11" width="650.76" height="35.3" rx="15"/>
      <g>
        <circle class="cls-3" cx="628.99" cy="221.82" r="85.61" transform="translate(183.35 718.05) rotate(-67.5)"/>
        <path class="cls-2" d="M629,151.21a70.62,70.62,0,1,1-70.62,70.61A70.69,70.69,0,0,1,629,151.21m0-30A100.62,100.62,0,1,0,729.6,221.82,100.62,100.62,0,0,0,629,121.21Z"/>
      </g>
      <g>
        <circle class="cls-3" cx="294.78" cy="441.88" r="85.61" transform="translate(-226.27 545.13) rotate(-67.5)"/>
        <path class="cls-2" d="M294.78,371.27a70.62,70.62,0,1,1-70.61,70.61,70.69,70.69,0,0,1,70.61-70.61m0-30A100.62,100.62,0,1,0,395.4,441.88,100.61,100.61,0,0,0,294.78,341.27Z"/>
      </g>
      <g>
        <circle class="cls-3" cx="527.79" cy="671.35" r="85.61" transform="translate(-320.13 569.84) rotate(-45)"/>
        <path class="cls-2" d="M527.79,600.74a70.62,70.62,0,1,1-70.62,70.61,70.7,70.7,0,0,1,70.62-70.61m0-30A100.62,100.62,0,1,0,628.4,671.35,100.62,100.62,0,0,0,527.79,570.74Z"/>
      </g>
    </g>
  </g>
</svg>
