<svg xmlns="http://www.w3.org/2000/svg" viewBox="0 0 930 930">
  <defs>
    <style>
      .cls-1 {
        fill: #2c2c2d;
      }

      .cls-2 {
        fill: #fff;
      }

      .cls-3 {
        fill: #252626;
      }

      .cls-4 {
        opacity: 0.5;
      }

      .cls-5 {
        fill: #4c494a;
      }

      .cls-6 {
        fill: none;
        stroke: #fff;
        stroke-miterlimit: 10;
        stroke-width: 12px;
      }
    </style>
  </defs>
  <title>Enhanced Image</title>
  <g id="Layer_2" data-name="Layer 2">
    <g id="Icon-Enhanced-Text">
      <g>
        <g>
          <rect class="cls-1" width="930" height="930" rx="85.35"/>
          <g>
            <rect class="cls-2" x="140.21" y="148.58" width="650.76" height="35.3" rx="15"/>
            <g>
              <circle class="cls-3" cx="647.99" cy="166.82" r="85.61"/>
              <path class="cls-2" d="M648,96.21a70.62,70.62,0,1,1-70.62,70.61A70.69,70.69,0,0,1,648,96.21m0-30A100.62,100.62,0,1,0,748.6,166.82,100.62,100.62,0,0,0,648,66.21Z"/>
            </g>
          </g>
        </g>
        <g>
          <g class="cls-4">
            <rect class="cls-5" x="184.09" y="323" width="562.82" height="546"/>
          </g>
          <g>
            <rect class="cls-6" x="242.71" y="373.21" width="445.57" height="445.57" rx="25"/>
            <circle class="cls-2" cx="563.49" cy="482.37" r="47.45"/>
            <path class="cls-2" d="M425,654.64l36.28,28.1c13.88,10.75,36.54,11,44.1-6.49l39.29-92.16h37.65L610.94,758.9H308.76l72.44-98.18A30.89,30.89,0,0,1,425,654.64Z"/>
          </g>
        </g>
      </g>
    </g>
  </g>
</svg>
