<svg xmlns="http://www.w3.org/2000/svg" viewBox="0 0 710.37 997.93">
  <defs>
    <style>
      .cls-1, .cls-3 {
        fill: #fff;
      }

      .cls-2 {
        fill: none;
      }

      .cls-2, .cls-3 {
        stroke: #000;
        stroke-miterlimit: 10;
        stroke-width: 2px;
      }
    </style>
  </defs>
  <title>Word Spacing</title>
  <g id="Layer_2" data-name="Layer 2">
    <g id="Icon-WordSpacing">
      <g id="Icon-WordSpacing-2" data-name="Icon-WordSpacing">
        <g>
          <path class="cls-1" d="M147.93,703.47l41.26,41.26-74.81,74.81H329.3c-.16,20.13-.32,39.6-.48,59.62-71.7,1.23-142.74.64-214.52.85l75.06,75.06-41.43,41.43L1.41,850Z"/>
          <path class="cls-2" d="M147.93,703.47l41.26,41.26-74.81,74.81H329.3c-.16,20.13-.32,39.6-.48,59.62-71.7,1.23-142.74.64-214.52.85l75.06,75.06-41.43,41.43L1.41,850Z"/>
        </g>
        <g>
          <path class="cls-1" d="M381.58,880.5v-60h214l.33-.91L521.51,745.2l41.28-41.28L709,850.08,562.77,996.26l-41.12-41.13,74.64-74.64Z"/>
          <path class="cls-2" d="M381.58,880.5v-60h214l.33-.91L521.51,745.2l41.28-41.28L709,850.08,562.77,996.26l-41.12-41.13,74.64-74.64Z"/>
        </g>
        <path class="cls-3" d="M22.2,1h78.07l61.82,321.22c11.39,63.46,23.11,126.92,34.5,190.38h3.6c13.07-63.46,27.26-127.26,41.45-190.38L323.46,1H392l81.82,321.22C488,384.68,502.18,448.81,516.37,512.6H520c11.39-63.79,22-127.59,33.38-190.38L615.16,1h72.93L566,591.65H475L385.9,237.27c-10.13-46.13-19.59-89.08-28.39-134.54h-3.6c-9.13,45.46-19.39,88.41-29.52,134.54L237.07,591.65H147.42Z"/>
      </g>
    </g>
  </g>
</svg>
